<svg width="33" height="33" viewBox="0 0 33 33" fill="none" xmlns="http://www.w3.org/2000/svg">
<circle cx="16.6519" cy="16.8904" r="16" fill="#6EBCDD" fill-opacity="0.1"/>
<path d="M20.6518 23.3904H20.5518C10.7518 22.8404 9.35183 14.5404 9.15183 11.9904C9.10183 11.1904 9.70183 10.4404 10.5518 10.3904H13.3018C13.7018 10.3904 14.1018 10.6404 14.2518 11.0404L14.9518 12.8904C15.1018 13.2404 15.0018 13.6904 14.7518 13.9904L13.7018 15.0404C14.0518 16.9904 15.5518 18.4904 17.5018 18.8404L18.6018 17.7904C18.9018 17.4904 19.3018 17.4404 19.7018 17.5904L21.6018 18.3404C21.9518 18.4904 22.2018 18.8404 22.2018 19.2904V21.8904C22.1518 22.7404 21.5018 23.3904 20.6518 23.3904ZM10.6518 11.3904C10.3518 11.3904 10.1518 11.5904 10.1518 11.8904V11.9404C10.4018 14.8904 11.8518 21.8904 20.6018 22.3904C20.9018 22.3904 21.1018 22.1904 21.1518 21.9404V19.2404L19.2518 18.4904L17.8018 19.9404L17.6018 19.8904C13.2518 19.3404 12.6518 14.9904 12.6518 14.9404L12.6018 14.6904L14.0018 13.2404L13.3018 11.3904H10.6518Z" fill="#6EBCDD"/>
<path d="M17.9519 10.8904C17.7862 10.8904 17.6519 11.0247 17.6519 11.1904V11.5904C17.6519 11.7561 17.7862 11.8904 17.9519 11.8904H19.2276C19.4949 11.8904 19.6287 12.2135 19.4397 12.4025L16.864 14.9782C16.7468 15.0954 16.7468 15.2854 16.864 15.4025L17.1397 15.6782C17.2569 15.7954 17.4468 15.7954 17.564 15.6782L20.1397 13.1025C20.3287 12.9135 20.6519 13.0474 20.6519 13.3146V14.5904C20.6519 14.7561 20.7862 14.8904 20.9519 14.8904H21.3519C21.5175 14.8904 21.6519 14.7561 21.6519 14.5904V11.1904C21.6519 11.0247 21.5175 10.8904 21.3519 10.8904H17.9519Z" fill="#6EBCDD"/>
</svg>
