<svg width="13" height="16" viewBox="0 0 13 16" fill="none" xmlns="http://www.w3.org/2000/svg">
<path d="M5.71029 11.8742C5.71029 12.1504 5.93414 12.3742 6.21029 12.3742C6.48643 12.3742 6.71029 12.1504 6.71029 11.8742H5.71029ZM6.71029 10.5409C6.71029 10.2648 6.48643 10.0409 6.21029 10.0409C5.93414 10.0409 5.71029 10.2648 5.71029 10.5409H6.71029ZM0.376953 8.54089V13.8742H1.37695V8.54089H0.376953ZM2.21029 15.7076H10.2103V14.7076H2.21029V15.7076ZM12.0436 13.8742V8.54089H11.0436V13.8742H12.0436ZM2.21029 7.70756H2.87695V6.70756H2.21029V7.70756ZM3.37695 7.20756V3.87423H2.37695V7.20756H3.37695ZM2.87695 7.70756H9.54362V6.70756H2.87695V7.70756ZM9.54362 7.70756H10.2103V6.70756H9.54362V7.70756ZM9.04362 3.87423V7.20756H10.0436V3.87423H9.04362ZM6.71029 11.8742V10.5409H5.71029V11.8742H6.71029ZM6.21029 1.04089C7.77509 1.04089 9.04362 2.30942 9.04362 3.87423H10.0436C10.0436 1.75714 8.32738 0.0408936 6.21029 0.0408936V1.04089ZM12.0436 8.54089C12.0436 7.52837 11.2228 6.70756 10.2103 6.70756V7.70756C10.6705 7.70756 11.0436 8.08066 11.0436 8.54089H12.0436ZM10.2103 15.7076C11.2228 15.7076 12.0436 14.8867 12.0436 13.8742H11.0436C11.0436 14.3345 10.6705 14.7076 10.2103 14.7076V15.7076ZM0.376953 13.8742C0.376953 14.8867 1.19776 15.7076 2.21029 15.7076V14.7076C1.75005 14.7076 1.37695 14.3345 1.37695 13.8742H0.376953ZM3.37695 3.87423C3.37695 2.30942 4.64548 1.04089 6.21029 1.04089V0.0408936C4.09319 0.0408936 2.37695 1.75714 2.37695 3.87423H3.37695ZM1.37695 8.54089C1.37695 8.08066 1.75005 7.70756 2.21029 7.70756V6.70756C1.19776 6.70756 0.376953 7.52837 0.376953 8.54089H1.37695Z" fill="#2D3748"/>
</svg>
