<svg width="33" height="33" viewBox="0 0 33 33" fill="none" xmlns="http://www.w3.org/2000/svg">
<circle cx="16.6519" cy="16.8904" r="16" fill="#6EBCDD" fill-opacity="0.1"/>
<path d="M13.6924 10.9682V19.8515C13.6924 20.2442 13.8484 20.6207 14.126 20.8984C14.4037 21.1761 14.7803 21.332 15.1729 21.332H21.0951C21.4878 21.332 21.8644 21.1761 22.142 20.8984C22.4197 20.6207 22.5757 20.2442 22.5757 19.8515V13.3682C22.5756 13.1709 22.5362 12.9757 22.4597 12.7939C22.3831 12.6121 22.2711 12.4475 22.13 12.3096L19.676 9.90962C19.3994 9.63917 19.028 9.48771 18.6411 9.48766H15.1729C14.7803 9.48766 14.4037 9.64365 14.126 9.92131C13.8484 10.199 13.6924 10.5755 13.6924 10.9682V10.9682Z" stroke="#6EBCDD" stroke-width="1.2" stroke-linecap="round" stroke-linejoin="round"/>
<path d="M19.614 21.3321V22.8126C19.614 23.2053 19.458 23.5819 19.1804 23.8595C18.9027 24.1372 18.5261 24.2932 18.1334 24.2932H12.2113C11.8186 24.2932 11.442 24.1372 11.1644 23.8595C10.8867 23.5819 10.7307 23.2053 10.7307 22.8126V14.6696C10.7307 14.2769 10.8867 13.9003 11.1644 13.6227C11.442 13.345 11.8186 13.189 12.2113 13.189H13.6918" stroke="#6EBCDD" stroke-width="1.2" stroke-linecap="round" stroke-linejoin="round"/>
</svg>
