<svg width="17" height="17" viewBox="0 0 17 17" fill="none" xmlns="http://www.w3.org/2000/svg">
<path d="M15.8094 14.9945H1.43445C1.08875 14.9945 0.809448 15.2738 0.809448 15.6195V16.3226C0.809448 16.4086 0.879761 16.4789 0.965698 16.4789H16.2782C16.3641 16.4789 16.4344 16.4086 16.4344 16.3226V15.6195C16.4344 15.2738 16.1552 14.9945 15.8094 14.9945ZM3.65515 13.3539C3.69421 13.3539 3.73328 13.35 3.77234 13.3441L7.0575 12.7679C7.09656 12.7601 7.13367 12.7426 7.16101 12.7133L15.4403 4.43396C15.4584 4.41589 15.4728 4.39443 15.4826 4.3708C15.4924 4.34717 15.4974 4.32184 15.4974 4.29626C15.4974 4.27068 15.4924 4.24536 15.4826 4.22173C15.4728 4.1981 15.4584 4.17664 15.4403 4.15857L12.1942 0.910522C12.1571 0.873413 12.1083 0.853882 12.0555 0.853882C12.0028 0.853882 11.954 0.873413 11.9169 0.910522L3.63757 9.18982C3.60828 9.21912 3.5907 9.25427 3.58289 9.29333L3.00671 12.5785C2.98771 12.6831 2.9945 12.7908 3.02649 12.8922C3.05848 12.9936 3.11471 13.0857 3.19031 13.1605C3.31921 13.2855 3.48132 13.3539 3.65515 13.3539Z" fill="#6EBCDD"/>
</svg>
