<svg width="16" height="16" viewBox="0 0 16 16" fill="none" xmlns="http://www.w3.org/2000/svg">
<path d="M2.17814 10.0355L2.64631 10.211L2.17814 10.0355ZM1.17814 12.7022L0.709977 12.5266H0.709977L1.17814 12.7022ZM14.4937 12.7022L14.9618 12.5266L14.4937 12.7022ZM13.4937 10.0355L13.9618 9.85993L13.4937 10.0355ZM7.83591 11.837L7.51582 12.2211C7.70124 12.3756 7.97058 12.3756 8.15601 12.2211L7.83591 11.837ZM5.3935 9.17032L5.79992 8.87907L5.3935 9.17032ZM1.70998 9.85993L0.709977 12.5266L1.64631 12.8777L2.64631 10.211L1.70998 9.85993ZM2.42658 15.0037H13.2452V14.0037H2.42658V15.0037ZM14.9618 12.5266L13.9618 9.85993L13.0255 10.211L14.0255 12.8777L14.9618 12.5266ZM13.9618 9.85993C13.6935 9.14437 13.0095 8.67032 12.2452 8.67032V9.67032C12.5926 9.67032 12.9036 9.8858 13.0255 10.211L13.9618 9.85993ZM13.2452 15.0037C14.5253 15.0037 15.4113 13.7251 14.9618 12.5266L14.0255 12.8777C14.2298 13.4225 13.8271 14.0037 13.2452 14.0037V15.0037ZM0.709977 12.5266C0.260523 13.7251 1.14654 15.0037 2.42658 15.0037V14.0037C1.84474 14.0037 1.44201 13.4225 1.64631 12.8777L0.709977 12.5266ZM3.42658 8.67032C2.66237 8.67032 1.97831 9.14437 1.70998 9.85993L2.64631 10.211C2.76828 9.8858 3.07921 9.67032 3.42658 9.67032V8.67032ZM4.33591 5.17032C4.33591 3.23732 5.90292 1.67032 7.83591 1.67032V0.670319C5.35063 0.670319 3.33591 2.68504 3.33591 5.17032H4.33591ZM7.83591 1.67032C9.76891 1.67032 11.3359 3.23732 11.3359 5.17032H12.3359C12.3359 2.68504 10.3212 0.670319 7.83591 0.670319V1.67032ZM8.66925 5.17032C8.66925 5.63056 8.29615 6.00365 7.83591 6.00365V7.00365C8.84844 7.00365 9.66925 6.18284 9.66925 5.17032H8.66925ZM7.83591 6.00365C7.37568 6.00365 7.00258 5.63056 7.00258 5.17032H6.00258C6.00258 6.18284 6.82339 7.00365 7.83591 7.00365V6.00365ZM7.00258 5.17032C7.00258 4.71008 7.37568 4.33699 7.83591 4.33699V3.33699C6.82339 3.33699 6.00258 4.1578 6.00258 5.17032H7.00258ZM7.83591 4.33699C8.29615 4.33699 8.66925 4.71008 8.66925 5.17032H9.66925C9.66925 4.1578 8.84844 3.33699 7.83591 3.33699V4.33699ZM7.83591 11.837C8.15601 11.4529 8.15605 11.4529 8.1561 11.453C8.1561 11.453 8.15614 11.453 8.15616 11.453C8.15619 11.453 8.1562 11.453 8.15619 11.453C8.15617 11.453 8.15607 11.4529 8.1559 11.4528C8.15555 11.4525 8.15488 11.4519 8.1539 11.4511C8.15195 11.4495 8.14877 11.4468 8.14439 11.4431C8.13564 11.4356 8.12214 11.4241 8.10426 11.4086C8.06849 11.3777 8.01522 11.3309 7.94737 11.2697C7.81162 11.1471 7.61793 10.9666 7.38967 10.7381C6.93202 10.2799 6.34101 9.63411 5.79992 8.87907L4.98709 9.46157C5.56921 10.2739 6.1994 10.9614 6.68215 11.4448C6.9241 11.687 7.1304 11.8793 7.2771 12.0118C7.35049 12.0781 7.40905 12.1295 7.44981 12.1647C7.47019 12.1824 7.48613 12.196 7.49726 12.2054C7.50282 12.2102 7.50718 12.2138 7.51029 12.2165C7.51184 12.2178 7.51308 12.2188 7.51401 12.2196C7.51447 12.22 7.51485 12.2203 7.51516 12.2205C7.51531 12.2207 7.51544 12.2208 7.51555 12.2209C7.5156 12.2209 7.51567 12.221 7.5157 12.221C7.51576 12.221 7.51582 12.2211 7.83591 11.837ZM5.79992 8.87907C4.9875 7.74542 4.33591 6.43192 4.33591 5.17032H3.33591C3.33591 6.74684 4.13422 8.27147 4.98709 9.46157L5.79992 8.87907ZM5.3935 8.67032H3.42658V9.67032H5.3935V8.67032ZM11.3359 5.17032C11.3359 6.43192 10.6843 7.74542 9.87191 8.87907L10.6847 9.46157C11.5376 8.27147 12.3359 6.74684 12.3359 5.17032H11.3359ZM9.87191 8.87907C9.33081 9.63411 8.7398 10.2799 8.28215 10.7381C8.0539 10.9666 7.8602 11.1471 7.72445 11.2697C7.65661 11.3309 7.60334 11.3777 7.56757 11.4086C7.54968 11.4241 7.53618 11.4356 7.52743 11.4431C7.52306 11.4468 7.51987 11.4495 7.51792 11.4511C7.51695 11.4519 7.51628 11.4525 7.51593 11.4528C7.51575 11.4529 7.51566 11.453 7.51564 11.453C7.51563 11.453 7.51564 11.453 7.51567 11.453C7.51568 11.453 7.51572 11.453 7.51573 11.453C7.51577 11.4529 7.51582 11.4529 7.83591 11.837C8.15601 12.2211 8.15606 12.221 8.15613 12.221C8.15615 12.221 8.15622 12.2209 8.15628 12.2209C8.15639 12.2208 8.15652 12.2207 8.15667 12.2205C8.15697 12.2203 8.15736 12.22 8.15782 12.2196C8.15874 12.2188 8.15999 12.2178 8.16154 12.2165C8.16465 12.2138 8.16901 12.2102 8.17457 12.2054C8.1857 12.196 8.20163 12.1824 8.22202 12.1647C8.26278 12.1295 8.32134 12.0781 8.39472 12.0118C8.54142 11.8793 8.74773 11.687 8.98967 11.4448C9.47242 10.9614 10.1026 10.2739 10.6847 9.46157L9.87191 8.87907ZM12.2452 8.67032H10.2783V9.67032H12.2452V8.67032Z" fill="#2D3748" fill-opacity="0.5"/>
</svg>
