<svg width="17" height="12" viewBox="0 0 17 12" fill="none" xmlns="http://www.w3.org/2000/svg">
<path d="M6.04362 8.54097C6.04362 8.26483 5.81976 8.04097 5.54362 8.04097C5.26748 8.04097 5.04362 8.26483 5.04362 8.54097L6.04362 8.54097ZM5.04362 3.20764C5.04362 3.48378 5.26748 3.70764 5.54362 3.70764C5.81976 3.70764 6.04362 3.48378 6.04362 3.20764L5.04362 3.20764ZM10.2103 6.37431C10.4864 6.37431 10.7103 6.15045 10.7103 5.87431C10.7103 5.59817 10.4864 5.37431 10.2103 5.37431L10.2103 6.37431ZM0.876953 5.87431L0.523399 5.52076C0.328137 5.71602 0.328137 6.0326 0.5234 6.22786L0.876953 5.87431ZM3.23051 4.22786C3.42577 4.0326 3.42577 3.71602 3.23051 3.52076C3.03524 3.32549 2.71866 3.32549 2.5234 3.52076L3.23051 4.22786ZM2.5234 8.22786C2.71866 8.42312 3.03524 8.42312 3.23051 8.22786C3.42577 8.0326 3.42577 7.71602 3.23051 7.52075L2.5234 8.22786ZM6.87695 1.04098L14.2103 1.04097L14.2103 0.040975L6.87695 0.0409753L6.87695 1.04098ZM15.0436 1.87431L15.0436 9.87431L16.0436 9.87431L16.0436 1.87431L15.0436 1.87431ZM14.2103 10.7076L6.87695 10.7076L6.87695 11.7076L14.2103 11.7076L14.2103 10.7076ZM6.04362 9.87431L6.04362 8.54097L5.04362 8.54097L5.04362 9.87431L6.04362 9.87431ZM6.04362 3.20764L6.04362 1.87431L5.04362 1.87431L5.04362 3.20764L6.04362 3.20764ZM10.2103 5.37431L0.876953 5.37431L0.876953 6.37431L10.2103 6.37431L10.2103 5.37431ZM1.23051 6.22786L3.23051 4.22786L2.5234 3.52076L0.523399 5.52076L1.23051 6.22786ZM0.5234 6.22786L2.5234 8.22786L3.23051 7.52075L1.23051 5.52076L0.5234 6.22786ZM15.0436 9.87431C15.0436 10.3345 14.6705 10.7076 14.2103 10.7076L14.2103 11.7076C15.2228 11.7076 16.0436 10.8868 16.0436 9.87431L15.0436 9.87431ZM14.2103 1.04097C14.6705 1.04097 15.0436 1.41407 15.0436 1.87431L16.0436 1.87431C16.0436 0.861786 15.2228 0.0409749 14.2103 0.040975L14.2103 1.04097ZM6.87695 0.0409753C5.86443 0.0409754 5.04362 0.861787 5.04362 1.87431L6.04362 1.87431C6.04362 1.41407 6.41672 1.04098 6.87695 1.04098L6.87695 0.0409753ZM6.87695 10.7076C6.41672 10.7076 6.04362 10.3345 6.04362 9.87431L5.04362 9.87431C5.04362 10.8868 5.86443 11.7076 6.87695 11.7076L6.87695 10.7076Z" fill="#2D3748"/>
</svg>
