<svg width="16" height="15" viewBox="0 0 16 15" fill="none" xmlns="http://www.w3.org/2000/svg">
<path d="M13.1712 14.2218L13.2205 13.7242L13.1712 14.2218ZM1.23494 2.28555L0.737381 2.33488L1.23494 2.28555ZM6.13986 1.86578L6.6142 1.70767V1.70767L6.13986 1.86578ZM6.90871 4.17233L7.38305 4.01421L6.90871 4.17233ZM6.58661 5.53677L6.23305 5.18322V5.18322L6.58661 5.53677ZM6.20943 5.91395L6.56298 6.26751L6.20943 5.91395ZM6.1209 6.73253L6.5374 6.4559V6.4559L6.1209 6.73253ZM8.72001 9.32202L8.43771 9.73471L8.72001 9.32202ZM11.2844 8.54801L11.1263 9.02235L11.2844 8.54801ZM13.5909 9.31685L13.749 8.84251L13.5909 9.31685ZM14.8562 1.30764C15.0514 1.11238 15.0514 0.795795 14.8562 0.600533C14.6609 0.405271 14.3443 0.405271 14.1491 0.600533L14.8562 1.30764ZM10.5026 4.95409H10.0026C10.0026 5.23023 10.2265 5.45409 10.5026 5.45409V4.95409ZM13.1693 5.45409C13.4454 5.45409 13.6693 5.23023 13.6693 4.95409C13.6693 4.67794 13.4454 4.45409 13.1693 4.45409V5.45409ZM11.0026 2.28742C11.0026 2.01128 10.7788 1.78742 10.5026 1.78742C10.2265 1.78742 10.0026 2.01128 10.0026 2.28742H11.0026ZM13.2205 13.7242C7.1569 13.123 2.33367 8.29981 1.7325 2.23622L0.737381 2.33488C1.38557 8.87274 6.58398 14.0711 13.1218 14.7193L13.2205 13.7242ZM2.50263 1.45409H4.87495V0.454086H2.50263V1.45409ZM5.66552 2.0239L6.43437 4.33044L7.38305 4.01421L6.6142 1.70767L5.66552 2.0239ZM6.23305 5.18322L5.85587 5.5604L6.56298 6.26751L6.94016 5.89033L6.23305 5.18322ZM5.70439 7.00916C6.47456 8.16876 7.19302 8.88328 8.43771 9.73471L9.00231 8.90934C7.85398 8.12383 7.23016 7.49894 6.5374 6.4559L5.70439 7.00916ZM9.90429 9.59286L10.2735 9.22366L9.56639 8.51655L9.19718 8.88576L9.90429 9.59286ZM11.1263 9.02235L13.4328 9.7912L13.749 8.84251L11.4425 8.07366L11.1263 9.02235ZM14.0026 10.5818V12.9541H15.0026V10.5818H14.0026ZM13.4328 9.7912C13.7731 9.90462 14.0026 10.2231 14.0026 10.5818H15.0026C15.0026 9.79264 14.4977 9.09206 13.749 8.84251L13.4328 9.7912ZM10.2735 9.22366C10.4967 9.00047 10.8268 8.92253 11.1263 9.02235L11.4425 8.07366C10.7837 7.85407 10.0574 8.02553 9.56639 8.51655L10.2735 9.22366ZM8.43771 9.73471C8.90245 10.0526 9.51737 9.97978 9.90429 9.59286L9.19718 8.88576C9.13921 8.94373 9.05686 8.94666 9.00231 8.90934L8.43771 9.73471ZM5.85587 5.5604C5.47583 5.94044 5.39606 6.54492 5.70439 7.00916L6.5374 6.4559C6.50334 6.40462 6.50541 6.32508 6.56298 6.26751L5.85587 5.5604ZM6.43437 4.33044C6.53418 4.62989 6.45625 4.96003 6.23305 5.18322L6.94016 5.89033C7.43118 5.3993 7.60264 4.67299 7.38305 4.01421L6.43437 4.33044ZM4.87495 1.45409C5.23364 1.45409 5.55209 1.68361 5.66552 2.0239L6.6142 1.70767C6.36466 0.959042 5.66407 0.454086 4.87495 0.454086V1.45409ZM1.7325 2.23622C1.6923 1.83073 2.02759 1.45409 2.50263 1.45409V0.454086C1.50491 0.454086 0.63228 1.2748 0.737381 2.33488L1.7325 2.23622ZM13.1218 14.7193C14.1819 14.8244 15.0026 13.9518 15.0026 12.9541H14.0026C14.0026 13.4291 13.626 13.7644 13.2205 13.7242L13.1218 14.7193ZM14.1491 0.600533L10.1491 4.60053L10.8562 5.30764L14.8562 1.30764L14.1491 0.600533ZM10.5026 5.45409H13.1693V4.45409H10.5026V5.45409ZM11.0026 4.95409V2.28742H10.0026V4.95409H11.0026Z" fill="#2D3748" fill-opacity="0.5"/>
</svg>
