<svg width="15" height="16" viewBox="0 0 15 16" fill="none" xmlns="http://www.w3.org/2000/svg">
<path d="M1.73839 5.05177L1.24181 4.99335L1.73839 5.05177ZM0.718781 13.7184L1.21536 13.7769L0.718781 13.7184ZM13.7017 13.7184L13.2052 13.7769L13.7017 13.7184ZM12.6821 5.05177L13.1787 4.99335V4.99335L12.6821 5.05177ZM4.04359 5.20756C4.04359 5.4837 4.26745 5.70756 4.54359 5.70756C4.81973 5.70756 5.04359 5.4837 5.04359 5.20756H4.04359ZM9.37692 5.20756C9.37692 5.4837 9.60078 5.70756 9.87692 5.70756C10.1531 5.70756 10.3769 5.4837 10.3769 5.20756H9.37692ZM1.24181 4.99335L0.222206 13.66L1.21536 13.7769L2.23496 5.11019L1.24181 4.99335ZM2.04298 15.7076H12.3775V14.7076H2.04298V15.7076ZM14.1983 13.66L13.1787 4.99335L12.1855 5.11019L13.2052 13.7769L14.1983 13.66ZM11.3579 3.37423H9.87692V4.37423H11.3579V3.37423ZM9.87692 3.37423H4.54359V4.37423H9.87692V3.37423ZM4.54359 3.37423H3.06259V4.37423H4.54359V3.37423ZM5.04359 5.20756V3.87423H4.04359V5.20756H5.04359ZM5.04359 3.87423V3.20756H4.04359V3.87423H5.04359ZM9.37692 3.20756V3.87423H10.3769V3.20756H9.37692ZM9.37692 3.87423V5.20756H10.3769V3.87423H9.37692ZM7.21026 1.04089C8.40687 1.04089 9.37692 2.01094 9.37692 3.20756H10.3769C10.3769 1.45866 8.95916 0.0408936 7.21026 0.0408936V1.04089ZM13.1787 4.99335C13.0701 4.07006 12.2876 3.37423 11.3579 3.37423V4.37423C11.7805 4.37423 12.1362 4.69052 12.1855 5.11019L13.1787 4.99335ZM12.3775 15.7076C13.475 15.7076 14.3265 14.7499 14.1983 13.66L13.2052 13.7769C13.2634 14.2723 12.8764 14.7076 12.3775 14.7076V15.7076ZM0.222206 13.66C0.0939814 14.7499 0.945561 15.7076 2.04298 15.7076V14.7076C1.54415 14.7076 1.15707 14.2723 1.21536 13.7769L0.222206 13.66ZM5.04359 3.20756C5.04359 2.01094 6.01364 1.04089 7.21026 1.04089V0.0408936C5.46136 0.0408936 4.04359 1.45866 4.04359 3.20756H5.04359ZM2.23496 5.11019C2.28434 4.69052 2.64002 4.37423 3.06259 4.37423V3.37423C2.13293 3.37423 1.35044 4.07006 1.24181 4.99335L2.23496 5.11019Z" fill="#2D3748"/>
</svg>
