<svg width="17" height="19" viewBox="0 0 17 19" fill="none" xmlns="http://www.w3.org/2000/svg">
<path d="M14.2198 5.77344C14.2198 2.83008 11.835 0.445312 8.89165 0.445312C5.94829 0.445312 3.56352 2.83008 3.56352 5.77344C3.56352 7.55234 4.43579 9.1293 5.77641 10.0961C5.76782 10.1004 5.76137 10.1025 5.75707 10.1047C4.79672 10.5107 3.9352 11.093 3.19399 11.8363C2.45278 12.5775 1.8727 13.4412 1.46665 14.4037C1.06918 15.3447 0.856489 16.3438 0.835005 17.3707C0.832856 17.4674 0.9102 17.5469 1.00688 17.5469H2.29379C2.38618 17.5469 2.46352 17.4717 2.46567 17.3793C2.50864 15.7207 3.1725 14.1674 4.3477 12.99C5.56157 11.7719 7.1729 11.1016 8.89165 11.1016C11.835 11.1016 14.2198 8.7168 14.2198 5.77344ZM8.89165 9.46875C6.85063 9.46875 5.19633 7.81445 5.19633 5.77344C5.19633 3.73242 6.85063 2.07812 8.89165 2.07812C10.9327 2.07812 12.587 3.73242 12.587 5.77344C12.587 7.81445 10.9327 9.46875 8.89165 9.46875ZM11.1475 14.2168H16.8194C16.9139 14.2168 16.9913 14.1395 16.9913 14.0449V12.8418C16.9913 12.7473 16.9139 12.6699 16.8194 12.6699H13.0274L14.0414 11.3787C14.0651 11.3486 14.078 11.31 14.078 11.2734C14.078 11.1789 14.0006 11.1016 13.9061 11.1016H12.3463C12.2411 11.1016 12.1422 11.151 12.0756 11.2326L10.604 13.1039C10.5094 13.2242 10.4579 13.3746 10.4579 13.5293C10.46 13.9096 10.7672 14.2168 11.1475 14.2168ZM16.3038 15.5918H10.6319C10.5373 15.5918 10.46 15.6691 10.46 15.7637V16.9668C10.46 17.0613 10.5373 17.1387 10.6319 17.1387H14.4239L13.4098 18.4299C13.3862 18.46 13.3733 18.4986 13.3733 18.5352C13.3733 18.6297 13.4506 18.707 13.5452 18.707H15.1049C15.2102 18.707 15.309 18.6576 15.3756 18.576L16.8473 16.7047C16.9418 16.5844 16.9934 16.434 16.9934 16.2793C16.9913 15.899 16.684 15.5918 16.3038 15.5918Z" fill="#2D3748" fill-opacity="0.75"/>
</svg>
